<svg width="11" height="11" viewBox="0 0 11 11" fill="none" xmlns="http://www.w3.org/2000/svg">
<path d="M2.92197 1.64645L2.56842 1.29289L2.21486 1.64645L1.64645 2.21486L1.29289 2.56842L1.64645 2.92197L4.22448 5.5L1.64645 8.07803L1.29289 8.43158L1.64645 8.78514L2.21486 9.35355L2.56842 9.70711L2.92197 9.35355L5.5 6.77552L8.07803 9.35355L8.43158 9.70711L8.78514 9.35355L9.35355 8.78514L9.70711 8.43158L9.35355 8.07803L6.77552 5.5L9.35355 2.92197L9.70711 2.56842L9.35355 2.21486L8.78514 1.64645L8.43158 1.29289L8.07803 1.64645L5.5 4.22448L2.92197 1.64645Z" fill="black" stroke="black"/>
</svg>
