<svg width="24" height="22" viewBox="0 0 24 22" fill="none" xmlns="http://www.w3.org/2000/svg">
<path d="M21.7111 22L13.6611 14.3C13.0222 14.7889 12.2875 15.1759 11.4569 15.4611C10.6264 15.7463 9.74259 15.8889 8.80556 15.8889C6.48426 15.8889 4.51989 15.1201 2.91244 13.5826C1.30415 12.0442 0.5 10.1648 0.5 7.94444C0.5 5.72407 1.30415 3.8447 2.91244 2.30633C4.51989 0.768778 6.48426 0 8.80556 0C11.1269 0 13.0916 0.768778 14.6999 2.30633C16.3074 3.8447 17.1111 5.72407 17.1111 7.94444C17.1111 8.84074 16.962 9.68611 16.6639 10.4806C16.3657 11.275 15.9611 11.9778 15.45 12.5889L23.5 20.2889L21.7111 22ZM8.80556 13.4444C10.4028 13.4444 11.7606 12.9099 12.8791 11.8409C13.9967 10.771 14.5556 9.47222 14.5556 7.94444C14.5556 6.41667 13.9967 5.11785 12.8791 4.048C11.7606 2.97896 10.4028 2.44444 8.80556 2.44444C7.20833 2.44444 5.85048 2.97896 4.732 4.048C3.61437 5.11785 3.05556 6.41667 3.05556 7.94444C3.05556 9.47222 3.61437 10.771 4.732 11.8409C5.85048 12.9099 7.20833 13.4444 8.80556 13.4444Z" fill="#120309"/>
</svg>
